inDegrees=no
num_controls=7
num_derivatives=13
num_iterations=71
num_multipliers=7
num_parameters=0
num_slacks=7
num_states=26
objective=0.333910
objective_accelerations=0.036770
objective_balance=0.001336
objective_effort=0.027094
objective_height=0.267238
objective_ligament=0.001472
solver_duration=735.833888
status=Solve_Succeeded
success=true
DataType=double
version=3
OpenSimVersion=4.5
endheader
time	/jointset/ground_pelvis/pelvis_tilt/value	/jointset/ground_pelvis/pelvis_tx/value	/jointset/ground_pelvis/pelvis_ty/value	/jointset/hip_r/hip_flexion_r/value	/jointset/hip_r/hip_adduction_r/value	/jointset/hip_r/hip_rotation_r/value	/jointset/back/lumbar_extension/value	/jointset/patellofemoral_r/patellar_flexion_r/value	/jointset/knee_r/knee_flexion_r/value	/jointset/knee_r/knee_adduction_r/value	/jointset/knee_r/knee_rotation_r/value	/jointset/ankle_r/ankle_angle_r/value	/jointset/subtalar_r/subtalar_angle_r/value	/jointset/ground_pelvis/pelvis_tilt/speed	/jointset/ground_pelvis/pelvis_tx/speed	/jointset/ground_pelvis/pelvis_ty/speed	/jointset/hip_r/hip_flexion_r/speed	/jointset/hip_r/hip_adduction_r/speed	/jointset/hip_r/hip_rotation_r/speed	/jointset/back/lumbar_extension/speed	/jointset/patellofemoral_r/patellar_flexion_r/speed	/jointset/knee_r/knee_flexion_r/speed	/jointset/knee_r/knee_adduction_r/speed	/jointset/knee_r/knee_rotation_r/speed	/jointset/ankle_r/ankle_angle_r/speed	/jointset/subtalar_r/subtalar_angle_r/speed	/forceset/tau_hip_flexion_r	/forceset/tau_hip_adduction_r	/forceset/tau_hip_rotation_r	/forceset/tau_knee_flexion_r	/forceset/tau_ankle_angle_r	/forceset/tau_subtalar_angle_r	/forceset/tau_lumbar_extension	lambda_cid13_p0	lambda_cid14_p0	lambda_cid14_p1	lambda_cid14_p2	lambda_cid14_p3	lambda_cid14_p4	lambda_cid14_p5	/jointset/ground_pelvis/pelvis_tilt/accel	/jointset/ground_pelvis/pelvis_tx/accel	/jointset/ground_pelvis/pelvis_ty/accel	/jointset/hip_r/hip_flexion_r/accel	/jointset/hip_r/hip_adduction_r/accel	/jointset/hip_r/hip_rotation_r/accel	/jointset/back/lumbar_extension/accel	/jointset/patellofemoral_r/patellar_flexion_r/accel	/jointset/knee_r/knee_flexion_r/accel	/jointset/knee_r/knee_adduction_r/accel	/jointset/knee_r/knee_rotation_r/accel	/jointset/ankle_r/ankle_angle_r/accel	/jointset/subtalar_r/subtalar_angle_r/accel	gamma_cid13_p0	gamma_cid14_p0	gamma_cid14_p1	gamma_cid14_p2	gamma_cid14_p3	gamma_cid14_p4	gamma_cid14_p5
1.5	-0.1096197255817331	0.03829400990364133	0.8163666770456651	0.8293560491102379	-0.2257107066221358	-0.1242477693480567	-0.6239836415766682	0.9357449984517666	0.9357449984517652	-0.03889885230802867	0.1745092997552956	0.3065671431011722	0.1391066810312068	0.5185699834356773	0.2234799423434077	0.5099643001809251	-2.066753598026821	0.001779837917509795	-0.1713382335998224	0.8036131916528609	-1.955053315308543	-1.955053315308556	0.4936766799593013	-0.0001821456563958812	-0.5250588164974084	-0.2072450463144014	-0.1722484686838569	0.02101840953142065	0.0172445785680748	-0.2837545310289214	-0.007564028659772393	-0.007706609890873977	0.2189779107680709	-9.392883306244443	-44.77592396477826	-10.63935923832436	1.492691633604367	-1.130042208377959	-628.3628718616148	51.47489616013846	0.1768042106994995	0.5507664431350779	-0.5261915059498015	-1.027157308479459	-0.2755420570535883	-0.6900179968212043	1.76026789786093	-1.344146478093621	-1.344146478093639	0.463378149677083	0.004400647066268521	-0.6722393188302161	-0.4716931353817028	1.686271316029552e-07	1.446266417421113e-07	-9.982867581976709e-07	1.538776340660094e-06	1.00525733113585e-08	3.36540940550192e-07	-7.844691161190547e-07
1.51	-0.1044255623012364	0.04055609935980763	0.8214389783867853	0.8086392103902673	-0.2257076748918221	-0.1259945313700376	-0.6158611277708543	0.9161298635139868	0.9161298635139835	-0.03393653838205506	0.1745083943410292	0.3012834530713022	0.1370094898115202	0.5201827421014177	0.2289086442280459	0.5043862505755162	-2.076335544512316	-0.001185424673688265	-0.1779741777184213	0.8207705418618907	-1.967695613485062	-1.967695613485061	0.4987920028123242	-3.301876611233822e-05	-0.531596030164703	-0.2121586221928566	-0.164536370530835	0.01899908086771505	0.01738903577845368	-0.2803347751936611	-0.005372347873718337	-0.008377636009377878	0.2120024004473119	-10.42039367004546	-43.7775997916886	-10.58670688490678	1.290939808537066	-1.265226031969404	-623.3600231332807	51.51908710266768	0.1415338803948347	0.5345264918214145	-0.5900031803156951	-0.8819056432604914	-0.3086471603242871	-0.6441136010353851	1.675614435321934	-1.18259473421247	-1.182594734210321	0.536384777651071	0.01532411425572652	-0.6319544363302361	-0.4959630022382858	1.631351594538996e-07	1.431271840153384e-07	-9.232906687944294e-07	1.522971073519537e-06	3.847168971782994e-09	3.326452274355287e-07	-7.531511994200079e-07
1.52	-0.09921766699690308	0.04287159672095908	0.8264522209333554	0.7878349137405032	-0.2257346215474617	-0.1278063990295313	-0.6075706112923706	0.8963966409450841	0.8963966409450814	-0.02892291614265423	0.1745080112765057	0.2959368924956295	0.1348642081954159	0.521316388202488	0.2341615233404408	0.4981525412709218	-2.084245183984852	-0.0042158392717337	-0.1843593611032682	0.8372137261868297	-1.978670841532834	-1.978670841532818	0.5039383426468002	-7.767570597524462e-05	-0.5376329256580432	-0.2168631255977472	-0.1568242723778444	0.01697975220399791	0.01753349298886133	-0.2769150193584019	-0.003180667087666067	-0.009048662127900934	0.2050268901265264	-11.45023227510401	-42.77953572806468	-10.53272778442326	1.087407988503983	-1.411940422249467	-618.3552478712962	51.62488615336849	0.08098169776557528	0.5156018886863711	-0.6573234457869286	-0.6926959058875181	-0.2885724584231027	-0.6398658500708762	1.617434721042819	-1.010732452343903	-1.010732452343913	0.4695815459676665	-0.03435611896292277	-0.5721756840393545	-0.4298786406688103	1.607543958283683e-07	1.347502180088923e-07	-9.850774816836454e-07	1.420626585156878e-06	1.590368517246694e-08	3.282279397515093e-07	-8.032767552975159e-07
1.53	-0.09400085565060302	0.04523869040384719	0.831399916088964	0.7669599299865002	-0.2257920107108236	-0.129682486308364	-0.5991193236597322	0.8765619091368689	0.8765619091368703	-0.02385920690362429	0.1745069926147517	0.2905325653166416	0.132673282530912	0.521963662595608	0.2392220841378829	0.4912836425153147	-2.090464815714257	-0.007260422137622482	-0.1909003763693108	0.8529141364416952	-1.987994401547001	-1.987994401546991	0.5087272215181688	-0.0001143619550519403	-0.5431398716535649	-0.2212647586558912	-0.1491126927231538	0.01479651117633826	0.01769553204147225	-0.2737339004860408	-0.0008788632347319248	-0.009802963196890745	0.1980565784748477	-12.47947463656881	-41.77285728125378	-10.5219709697577	0.9005499248010195	-1.54687877582404	-613.6332264935839	51.72438597401185	0.04427570687803271	0.4960266513543005	-0.7170360717840955	-0.5435714491898782	-0.312091639595327	-0.6673136865834963	1.52689459295001	-0.85103242637285	-0.8510324263736754	0.4719345401509336	0.01361055975474416	-0.5260105816921332	-0.4367904259491771	1.616792912590814e-07	1.190658994552938e-07	-1.192196128258595e-06	1.226334174245739e-06	4.736349194717634e-08	3.232564790875492e-07	-9.399360007876127e-07
1.54	-0.08878003648101125	0.04765533838992611	0.836275849660749	0.7460313549866551	-0.2258797837906379	-0.1316252026041925	-0.5905149218414969	0.8566423687984319	0.856642368798429	-0.01874993017939452	0.1745059941780214	0.2850759573728217	0.1304400435783131	0.5221179528604287	0.2440723839786012	0.4838002245062188	-2.094963433152584	-0.01029262256044809	-0.1976851645038546	0.8678365633062153	-1.995632547577955	-1.99563254757795	0.5130518396867214	-7.363069873779786e-05	-0.5480890786244296	-0.2253257832165153	-0.141401113068493	0.01261327014867672	0.0178575710940315	-0.2705527816136887	0.001422940618202894	-0.01055726426588071	0.1910862668231435	-13.50445712245201	-40.767086846643	-10.51072156863257	0.7128691426730984	-1.688387902973256	-608.9176021150674	51.87909591774104	-0.01761512789420862	0.4735496973415577	-0.7802272964846898	-0.3484930476720552	-0.2860959698104894	-0.6886204237711984	1.461838042973747	-0.6736496557009968	-0.6736496557010035	0.3767294054044243	-0.01887261788468574	-0.4606278791080506	-0.3617569411648612	1.658067003701726e-07	1.065684570053211e-07	-1.399643405679779e-06	1.035730289826297e-06	7.824159062275216e-08	3.129096200343805e-07	-1.054561143645554e-06
1.55	-0.0835601660857334	0.05011936588758648	0.8410739482308266	0.7250664820279661	-0.2259977963160638	-0.1336370048252988	-0.581765261804677	0.8366549695130842	0.8366549695130738	-0.01359969280229707	0.1745058824151643	0.2795726700552651	0.1281679159115731	0.5217717422603563	0.248690337953343	0.4757239418874386	-2.097714017601489	-0.01331555720556363	-0.2046419643927074	0.8819561875833152	-2.00154709994196	-2.00154709994197	0.5169881391164589	3.238233354179023e-05	-0.5524748847266935	-0.2290586513989771	-0.1337778720951403	0.01033138974359949	0.01802397019725708	-0.2674659615961995	0.003610094595190029	-0.0113907229970642	0.1841871578355631	-14.5210452585445	-39.82796674615233	-10.55149554148453	0.5403076199907879	-1.745977704922936	-604.5237277797985	51.99014265837408	-0.05577424272638117	0.449526653670426	-0.8356034517987676	-0.1937596350569844	-0.31126493201019	-0.6939828401949567	1.366136149032615	-0.5053621874907359	-0.5053621874928668	0.4007276860878315	0.02260602524403709	-0.4134676228175361	-0.3730702339558367	1.7362396219996e-07	9.774285006604757e-08	-1.607469322989015e-06	8.49376229408159e-07	1.084494604015002e-07	2.963693671849503e-07	-1.143799168253405e-06
1.56	-0.07834628783978489	0.05262829460622045	0.8457884290332714	0.704083019526474	-0.2261462127319744	-0.1357173296590457	-0.5728785832192952	0.8166174238719389	0.8166174238719373	-0.00841036293606833	0.1745062843349197	0.2740283425472813	0.1258596558675736	0.5209195229937696	0.253052628173319	0.4670766709796544	-2.098681341712689	-0.01637340065658805	-0.2113896870316682	0.8952402730185858	-2.005661818735582	-2.005661818735606	0.5208703375193828	2.910582420858094e-05	-0.5562971167102374	-0.2325522586682005	-0.1261546311218268	0.008049509338487099	0.01819036930062994	-0.2643791415787066	0.005797248572165029	-0.01222418172831586	0.1772880488479541	-15.52635349915915	-38.89017581919396	-10.59273302449485	0.3680831695552051	-1.807407807615313	-600.1434716984634	52.14733370589476	-0.1188168611969881	0.4224169463883501	-0.8944249542854715	0.008159019868905895	-0.2930777309922951	-0.6468049737928491	1.294730274607914	-0.3136829416242596	-0.3136829416242604	0.3659092000416905	-0.04073052620721014	-0.3479130553641467	-0.3139047585172004	1.838124656656456e-07	8.913049274067413e-08	-1.858986472239947e-06	6.396990851661926e-07	1.430190238143072e-07	2.790135111028121e-07	-1.245963793818564e-06
